# xmcd
#
# Track frame offsets:
#	150
#	14657
#	28675
#	42915
#	55680
#	69127
#	83230
#	95600
#	108895
#	120657
#	133210
#	148242
#	163292
#	177557
#	191892
#	205717
#
# Disc length: 2900 seconds
#
# Revision: 1
# Processed by: cddbd v1.4PL0 Copyright (c) Steve Scherf et al.
# Submitted via: audiograbber 1.80
#
DISCID=ea0b5210
DTITLE=Bunny and Red and The Mound City Blue Blowers - Best of
DYEAR=1900
DGENRE=
TTITLE0=What's The Reason (I'm Not Pleasin'You)
TTITLE1=She's A Latin From Manhattan
TTITLE2=You've Been Takin'Lessons In Love
TTITLE3=Indiana
TTITLE4=The Broken Record
TTITLE5=Music Goes'Round And Around
TTITLE6=I'm Gonna Sit Right Down And Write Myself A Letter
TTITLE7=Mama Don't Allow It
TTITLE8=Rhythm In my Nursery Rhymes
TTITLE9=Hope Gabriel Likes My Music
TTITLE10=Sing An Old Fashioned Song
TTITLE11=I'm Building Up To An Awful Latdown 
TTITLE12=Don't Count Your Kisses (Before You're Kissed)
TTITLE13=When Love Has Gon
TTITLE14=I don't Know Your Name (But You're Beautiful)
TTITLE15=Moon Rose
EXTD=
EXTT0=
EXTT1=
EXTT2=
EXTT3=
EXTT4=
EXTT5=
EXTT6=
EXTT7=
EXTT8=
EXTT9=
EXTT10=
EXTT11=
EXTT12=
EXTT13=
EXTT14=
EXTT15=
PLAYORDER=
